font-0.sfdir
StartChar: zero
Encoding: 2 48 1
Width: 571
Flags: MW
HStem: -15 67<227.5 340.5 227.5 360.5> 452 67<229 343.5>
VStem: 51 85<201 301.5 201 325> 435 85<199.5 300.5>
LayerCount: 2
Fore
SplineSet
520 252 m 0
 520 99 439 -15 282 -15 c 0
 130 -15 51 102 51 248 c 0
 51 402 129 519 290 519 c 0
 445 519 520 399 520 252 c 0
435 250 m 0
 435 351 401 452 286 452 c 0
 172 452 136 352 136 251 c 0
 136 151 171 52 284 52 c 0
 397 52 435 149 435 250 c 0
EndSplineSet
EndChar
StartChar: one
Encoding: 3 49 2
Width: 382
Flags: MW
HStem: -1 21<77 77 351 351> 512 20G<254 254>
VStem: 170 88<187 238 127.5 395> 170 93
LayerCount: 2
Fore
SplineSet
351 -1 m 1xe0
 318 1 252 2 207 2 c 0
 183 2 124 1 77 -1 c 1
 77 17 l 1
 86 19 130 23 149 44 c 0
 171 68 170 116 170 187 c 2
 170 395 l 2
 170 409 161 417 147 417 c 0
 116 416 80 408 25 400 c 1
 25 423 l 1
 133 460 171 467 254 532 c 1
 263 526 l 1xd0
 259 436 258 327 258 238 c 2
 258 153 l 2
 258 102 257 69 277 47 c 0
 291 32 313 23 351 17 c 1
 351 -1 l 1xe0
EndSplineSet
EndChar
StartChar: two
Encoding: 4 50 3
Width: 500
Flags: MW
HStem: -1 73 1 71<192 228 228 242> 483 36<202 234.5>
VStem: 306 104<339.5 408>
LayerCount: 2
Fore
SplineSet
432 137 m 1xb0
 428 115 425 90 422 65 c 0
 420 42 418 19 418 -1 c 1xb0
 345 0 315 1 242 1 c 2
 228 1 l 2x70
 156 1 121 1 43 -1 c 1
 43 53 l 1
 114 105 181 157 241 222 c 0
 282 267 306 308 306 371 c 0
 306 445 271 483 198 483 c 0
 180 483 164 481 146 477 c 1
 157 466 161 451 161 437 c 0
 161 406 141 388 110 388 c 0
 81 388 61 405 61 435 c 0
 61 507 177 519 227 519 c 0
 323 519 410 484 410 375 c 0
 410 278 341 218 266 164 c 0
 206 121 159 95 120 72 c 1
 191 72 l 2
 206 72 275 72 290 72 c 0
 362 74 378 73 414 137 c 1
 432 137 l 1xb0
EndSplineSet
EndChar
StartChar: three
Encoding: 5 51 4
Width: 481
Flags: MW
HStem: -229 36<139 228.5 131 241.5> 483 36<178 219.5>
VStem: 295 102<316 384> 319 101<-25.5 47.5>
LayerCount: 2
Fore
SplineSet
420 -2 m 0xd0
 420 -136 321 -229 162 -229 c 0
 116 -229 4 -225 4 -154 c 0
 4 -124 25 -101 54 -101 c 0
 82 -101 105 -120 105 -150 c 0
 105 -164 98 -179 89 -189 c 1
 106 -193 123 -193 139 -193 c 0
 318 -193 319 -37 319 -14 c 0xd0
 319 109 245 149 138 149 c 1
 138 173 l 1
 247 185 295 252 295 345 c 0
 295 423 266 483 173 483 c 0
 155 483 139 481 121 477 c 1
 132 466 136 451 136 437 c 0
 136 406 116 388 85 388 c 0
 56 388 36 405 36 435 c 0
 36 507 153 519 203 519 c 0
 300 519 397 476 397 363 c 0xe0
 397 269 341 216 253 186 c 1
 340 177 420 119 420 -2 c 0xd0
EndSplineSet
EndChar
StartChar: six
Encoding: 6 54 5
Width: 558
Flags: MW
HStem: -10 37<221 332 221 352> 392 56<282 325> 583 128<244 456> 675 36<259.5 365.5>
VStem: 54 100<233.5 326 233.5 444> 54 101<352 363 352 444> 406 101<179.5 272>
LayerCount: 2
Fore
SplineSet
507 241 m 0xd6
 507 93 425 -10 279 -10 c 0
 93 -10 54 135 54 332 c 0
 54 556 139 711 349 711 c 0
 398 711 492 704 492 636 c 0
 492 605 470 583 442 583 c 0xea
 415 583 391 598 391 632 c 0
 391 646 397 662 408 670 c 1
 398 673 373 675 358 675 c 0
 161 675 159 473 155 376 c 1
 194 423 249 448 315 448 c 0
 438 448 507 364 507 241 c 0xd6
406 222 m 0
 406 322 377 392 273 392 c 0
 233 392 191 380 155 363 c 1xe6
 155 341 154 337 154 315 c 0
 154 152 160 27 282 27 c 0
 382 27 406 137 406 222 c 0
EndSplineSet
EndChar
StartChar: nine
Encoding: 7 57 6
Width: 558
Flags: MW
HStem: -229 36<192.5 292.5 192.5 323> 57 56<235 271> 476 37<228 336.5>
VStem: 51 101<231.5 326.5 231.5 328> 403 101 404 100<201 275 61 284.5>
LayerCount: 2
Fore
SplineSet
504 193 m 0xf8
 504 -71 430 -229 216 -229 c 0
 167 -229 70 -222 70 -154 c 0
 70 -123 92 -101 120 -101 c 0
 146 -101 171 -117 171 -150 c 0
 171 -164 165 -180 154 -188 c 1
 164 -191 185 -193 200 -193 c 0
 385 -193 398 -9 403 129 c 1
 363 78 298 57 244 57 c 0
 122 57 51 138 51 263 c 0
 51 393 115 513 282 513 c 0
 470 513 504 357 504 193 c 0xf8
404 212 m 0xf4
 404 357 392 476 281 476 c 0
 175 476 152 372 152 281 c 0
 152 182 183 113 287 113 c 0
 327 113 367 125 403 142 c 1xf8
 404 154 404 190 404 212 c 0xf4
EndSplineSet
EndChar
StartChar: a
Encoding: 8 97 7
Width: 518
Flags: MW
HStem: -1 21<-15 -15 179 179 301 301 528 528> 189 39<170 310 170 322 157 310> 511 20G<300 300>
LayerCount: 2
Fore
SplineSet
528 -1 m 1
 500 1 445 2 414 2 c 0
 373 2 330 1 301 -1 c 1
 301 17 l 2
 304 17 333 20 347 31 c 0
 355 37 360 46 360 59 c 0
 360 74 349 107 344 122 c 2
 322 189 l 1
 157 189 l 1
 141 138 l 2
 130 102 120 72 120 60 c 0
 120 48 123 41 129 35 c 0
 143 21 167 19 179 17 c 1
 179 -1 l 1
 156 1 110 2 83 2 c 0
 47 2 10 1 -15 -1 c 1
 -15 17 l 1
 38 27 51 57 67 100 c 2
 221 506 l 1
 232 507 280 517 300 531 c 1
 431 144 l 2
 461 56 463 32 528 17 c 1
 528 -1 l 1
310 228 m 1
 277 328 l 2
 260 381 244 433 240 454 c 1
 237 441 227 404 211 355 c 2
 170 228 l 1
 310 228 l 1
EndSplineSet
EndChar
StartChar: b
Encoding: 9 98 8
Width: 546
Flags: MW
HStem: -1 30<237.5 277 237.5 293.5>
VStem: 122 89<186 256 287 363 363 388> 364 97<383 439.5> 390 71 390 100<127 204.5>
LayerCount: 2
Fore
SplineSet
490 145 m 0xc8
 490 109 476 69 445 43 c 0
 393 -1 330 -1 257 -1 c 0
 200 -1 166 1 131 1 c 0
 100 1 78 1 40 -1 c 1
 40 17 l 1
 71 23 91 29 103 43 c 0
 124 68 122 115 122 186 c 2
 122 363 l 2
 122 413 123 448 104 471 c 0
 93 485 74 492 42 498 c 1
 42 516 l 1
 73 513 96 513 139 513 c 0
 220 513 203 515 275 515 c 0
 296 515 461 525 461 401 c 0xe0
 461 289 336 276 314 274 c 1
 326 274 490 280 490 145 c 0xc8
364 389 m 0xe0
 364 490 287 487 244 487 c 0
 235 487 221 486 211 486 c 1
 211 287 l 1
 220 286 232 286 242 286 c 0
 261 286 292 285 309 293 c 0
 360 316 364 377 364 389 c 0xe0
390 144 m 0xd0
 390 265 278 256 245 256 c 0
 212 256 226 256 211 256 c 1
 211 66 l 2
 211 36 220 29 255 29 c 0
 299 29 390 25 390 144 c 0xd0
EndSplineSet
EndChar
StartChar: c
Encoding: 10 99 9
Width: 525
Flags: MW
HStem: -5 36<304.5 354> 499 20G<310.5 336.5> 501 20G<458 458>
VStem: 51 104<203.5 277.5>
LayerCount: 2
Fore
SplineSet
475 150 m 1xb0
 473 136 468 96 467 68 c 0
 466 47 466 29 466 9 c 1
 445 2 376 -5 332 -5 c 0
 277 -5 215 2 167 29 c 0
 85 75 51 157 51 250 c 0
 51 305 65 447 214 501 c 0xb0
 248 513 290 519 331 519 c 0xd0
 342 519 357 519 372 518 c 0
 408 516 414 513 434 513 c 0
 443 513 450 514 458 521 c 1
 468 515 l 1
 467 503 465 465 465 445 c 0
 465 387 467 380 468 365 c 1
 450 365 l 1
 414 447 410 484 334 484 c 0
 315 484 155 497 155 255 c 0
 155 121 205 31 330 31 c 0
 392 31 410 47 457 150 c 1
 475 150 l 1xb0
EndSplineSet
EndChar
StartChar: d
Encoding: 11 100 10
Width: 614
Flags: MW
HStem: -1 35<246 286.5 246 297.5> 481 34<246.5 278> 496 20G<42 42>
VStem: 122 89<187 356 356 390> 459 104<236 288.5>
LayerCount: 2
Fore
SplineSet
563 267 m 0xd8
 563 205 545 133 500 82 c 0
 434 7 353 -1 242 -1 c 0
 205 -1 178 1 140 1 c 0
 96 1 85 1 40 -1 c 1
 40 17 l 1
 71 23 91 29 103 43 c 0
 124 68 122 116 122 187 c 2
 122 356 l 2
 122 424 122 449 104 471 c 0
 90 487 72 492 42 498 c 1
 42 516 l 1xb8
 55 515 78 513 137 513 c 0
 186 513 223 515 270 515 c 0
 332 515 395 512 450 481 c 0
 531 436 563 355 563 267 c 0xd8
459 256 m 0
 459 321 444 405 394 446 c 0
 356 477 301 481 255 481 c 0xd8
 230 481 215 480 211 480 c 1
 211 71 l 2
 211 63 211 49 217 42 c 0
 224 34 240 34 252 34 c 0
 321 34 459 34 459 256 c 0
EndSplineSet
EndChar
StartChar: e
Encoding: 12 101 11
Width: 499
Flags: MW
HStem: -1 37 1 35<242 285> 248 34<211 287 211 287> 479 34<211 242 242 270 211 211> 502 20G<421 421>
VStem: 122 89<187 248 282 364 364 389>
LayerCount: 2
Fore
SplineSet
444 138 m 1xb4
 442 122 437 88 435 56 c 0
 434 34 433 21 433 -1 c 1xb4
 364 0 354 1 285 1 c 2
 189 1 l 2x74
 139 1 90 0 40 -1 c 1
 40 17 l 1
 71 23 91 29 103 43 c 0
 124 68 122 116 122 187 c 2
 122 364 l 2
 122 414 124 448 104 471 c 0
 92 485 74 492 42 498 c 1
 42 516 l 1
 70 514 122 513 150 513 c 2
 242 513 l 2xb4
 334 513 394 516 421 522 c 1xac
 426 516 l 1
 424 504 423 476 423 456 c 0
 423 397 425 398 426 383 c 1
 408 383 l 1
 401 406 384 452 367 466 c 0
 353 478 319 479 270 479 c 2
 211 479 l 1
 211 282 l 1
 287 282 l 2
 342 282 343 321 357 358 c 1
 375 358 l 1
 374 338 372 338 372 265 c 0
 372 192 375 201 375 174 c 1
 357 174 l 1
 339 223 339 248 287 248 c 2
 211 248 l 1
 211 73 l 2
 211 45 216 36 242 36 c 2
 297 36 l 2
 370 36 388 44 426 138 c 1
 444 138 l 1xb4
EndSplineSet
EndChar
StartChar: f
Encoding: 13 102 12
Width: 455
Flags: MW
HStem: -1 21<40 40 306 306> 248 34<211 281 211 281> 479 34<211 236 236 264 211 211> 502 20G<415 415>
VStem: 122 89<187 248 282 363 363 388>
LayerCount: 2
Fore
SplineSet
420 383 m 1xd8
 402 383 l 1
 395 406 378 452 361 466 c 0
 347 478 313 479 264 479 c 2
 211 479 l 1
 211 282 l 1
 281 282 l 2
 336 282 337 321 351 358 c 1
 369 358 l 1
 368 338 366 338 366 265 c 0
 366 192 369 201 369 174 c 1
 351 174 l 1
 333 223 333 248 281 248 c 2
 211 248 l 1
 211 153 l 2
 211 102 212 69 232 47 c 0
 246 32 268 23 306 17 c 1
 306 -1 l 1
 262 1 244 2 174 2 c 0
 130 2 85 1 40 -1 c 1
 40 17 l 1
 71 23 91 29 103 43 c 0
 124 68 122 116 122 187 c 2
 122 363 l 2
 122 413 124 448 104 471 c 0
 92 485 74 492 42 498 c 1
 42 516 l 1
 70 514 122 513 150 513 c 2
 236 513 l 2xe8
 328 513 388 516 415 522 c 1
 420 516 l 1
 418 504 417 476 417 456 c 0
 417 397 419 398 420 383 c 1xd8
EndSplineSet
EndChar
StartChar: g
Encoding: 14 103 13
Width: 589
Flags: MW
HStem: -5 35<281.5 350> 499 20G<333 353> 501 20G<482 482>
VStem: 51 103<176.5 315> 399 87<32 43 14 76 14 97.5>
LayerCount: 2
Fore
SplineSet
564 202 m 1xb8
 535 196 517 191 505 177 c 0
 483 151 486 111 486 43 c 2
 486 14 l 1
 444 -1 373 -5 327 -5 c 0
 176 -5 51 64 51 249 c 0
 51 381 117 467 219 502 c 0
 268 519 319 519 347 519 c 0xd8
 359 519 380 518 395 517 c 0
 433 515 439 513 458 513 c 0
 467 513 474 514 482 521 c 1
 492 515 l 1
 491 503 489 465 489 445 c 0
 489 387 491 380 492 365 c 1
 474 365 l 1
 429 468 411 484 344 484 c 0
 279 484 154 469 154 252 c 0
 154 101 214 30 349 30 c 0
 365 30 370 30 399 32 c 1
 399 76 l 2
 399 119 401 149 388 171 c 0
 378 188 358 195 323 202 c 1
 323 220 l 1
 354 218 393 217 436 217 c 0
 480 217 519 218 564 220 c 1
 564 202 l 1xb8
EndSplineSet
EndChar
StartChar: h
Encoding: 15 104 14
Width: 669
Flags: MW
HStem: -1 21<40 40 291 291 376 376 627 627> 244 41<211 458 211 458> 496 20G<42 42 293 293 378 378 629 629>
VStem: 122 89<187 244 285 328> 458 89<187 244 244 244 285 328>
LayerCount: 2
Fore
SplineSet
629 498 m 1
 598 492 578 486 566 472 c 0
 545 447 547 399 547 328 c 2
 547 153 l 2
 547 103 546 67 565 44 c 0
 576 30 595 23 627 17 c 1
 627 -1 l 1
 596 1 551 2 508 2 c 0
 464 2 422 1 376 -1 c 1
 376 17 l 1
 408 23 427 29 439 43 c 0
 461 67 458 116 458 187 c 2
 458 244 l 1
 211 244 l 1
 211 153 l 2
 211 103 209 67 229 44 c 0
 241 30 259 22 291 17 c 1
 291 -1 l 1
 260 1 216 2 173 2 c 0
 129 2 85 1 40 -1 c 1
 40 17 l 1
 71 23 91 29 103 43 c 0
 124 68 122 116 122 187 c 2
 122 362 l 2
 122 424 123 448 104 471 c 0
 90 487 69 493 42 498 c 1
 42 516 l 1
 73 514 118 513 161 513 c 0
 205 513 248 514 293 516 c 1
 293 498 l 1
 262 492 242 485 230 472 c 0
 208 448 211 399 211 328 c 2
 211 285 l 1
 458 285 l 1
 458 363 l 2
 458 412 460 448 440 471 c 0
 428 485 410 492 378 498 c 1
 378 516 l 1
 409 514 453 513 496 513 c 0
 540 513 584 514 629 516 c 1
 629 498 l 1
EndSplineSet
EndChar
StartChar: i
Encoding: 16 105 15
Width: 333
Flags: MW
HStem: -1 21<40 40 291 291> 496 20G<42 42 293 293>
VStem: 122 89<187 328>
LayerCount: 2
Fore
SplineSet
293 498 m 1
 261 492 241 484 229 471 c 0
 209 448 211 402 211 328 c 2
 211 152 l 2
 211 102 210 67 229 44 c 0
 240 30 258 22 291 17 c 1
 291 -1 l 1
 260 1 214 2 171 2 c 0
 127 2 85 1 40 -1 c 1
 40 17 l 1
 71 23 91 29 103 43 c 0
 124 68 122 116 122 187 c 2
 122 363 l 2
 122 413 124 448 104 471 c 0
 92 485 74 492 42 498 c 1
 42 516 l 1
 73 514 118 513 161 513 c 0
 205 513 248 514 293 516 c 1
 293 498 l 1
EndSplineSet
EndChar
StartChar: l
Encoding: 17 108 16
Width: 430
Flags: MW
HStem: -1 37 1 35<240 264> 496 20G<41 41 299 299>
VStem: 121 89<187 328>
LayerCount: 2
Fore
SplineSet
424 138 m 1xb0
 422 122 417 88 415 56 c 0
 414 34 413 21 413 -1 c 1xb0
 344 0 333 1 264 1 c 2
 188 1 l 2x70
 139 1 89 0 39 -1 c 1
 39 17 l 1
 70 23 90 29 102 43 c 0
 123 68 121 116 121 187 c 2
 121 362 l 2
 121 412 123 448 103 471 c 0
 91 485 73 492 41 498 c 1
 41 516 l 1
 72 514 125 513 168 513 c 0
 191 513 254 514 299 516 c 1
 299 498 l 1
 267 492 242 486 231 472 c 0
 209 445 210 402 210 328 c 2
 210 73 l 2
 210 45 214 36 240 36 c 2
 276 36 l 2
 351 36 369 44 406 138 c 1
 424 138 l 1xb0
EndSplineSet
EndChar
StartChar: n
Encoding: 18 110 17
Width: 636
Flags: MW
HStem: -5 21<499 527 499 499> 496 20G<42 42 180 180 398 398 609 609>
VStem: 122 49<187 362 362 393> 478 49<155 328 -5 363 -5 388>
LayerCount: 2
Fore
SplineSet
609 498 m 1
 578 492 558 486 546 472 c 0
 525 447 527 399 527 328 c 2
 527 -5 l 1
 499 -5 l 1
 198 358 l 2
 184 375 176 387 171 399 c 1
 171 152 l 2
 171 102 168 67 189 43 c 0
 200 30 219 22 251 17 c 1
 251 -1 l 1
 217 1 185 2 146 2 c 0
 107 2 74 1 40 -1 c 1
 40 17 l 1
 71 23 91 29 103 43 c 0
 124 68 122 116 122 187 c 2
 122 362 l 2
 122 424 123 448 104 471 c 0
 90 487 69 493 42 498 c 1
 42 516 l 1
 83 513 77 513 118 513 c 0
 136 513 163 514 180 516 c 1
 441 208 l 2
 462 183 476 160 478 155 c 2
 478 363 l 2
 478 413 481 448 460 472 c 0
 449 485 430 493 398 498 c 1
 398 516 l 1
 432 514 464 513 503 513 c 0
 542 513 575 514 609 516 c 1
 609 498 l 1
EndSplineSet
EndChar
StartChar: o
Encoding: 19 111 18
Width: 609
Flags: MW
HStem: -8 38<243.5 364 243.5 378.5> 480 39<244 366.5>
VStem: 51 104<204.5 305.5 204.5 331> 454 104<204.5 305.5>
LayerCount: 2
Fore
SplineSet
558 263 m 0
 558 99 458 -8 299 -8 c 0
 144 -8 51 93 51 250 c 0
 51 412 153 519 310 519 c 0
 461 519 558 418 558 263 c 0
454 255 m 0
 454 356 428 480 305 480 c 0
 183 480 155 356 155 255 c 0
 155 154 183 30 304 30 c 0
 424 30 454 154 454 255 c 0
EndSplineSet
EndChar
StartChar: p
Encoding: 20 112 19
Width: 506
Flags: MW
HStem: -1 21<40 40 307 307> 217 28<288 298.5 258.5 353.5> 486 29<245 273.5 232 286.5> 496 20G<42 42>
VStem: 122 89<187 363 363 388> 373 101<331.5 413.5 323.5 415>
LayerCount: 2
Fore
SplineSet
474 371 m 0xec
 474 276 401 217 306 217 c 0
 270 217 239 224 230 230 c 1
 234 247 l 1
 244 245 254 245 263 245 c 0
 334 245 373 293 373 370 c 0
 373 460 325 486 248 486 c 0xec
 242 486 218 486 211 485 c 1
 211 153 l 2
 211 102 213 68 232 46 c 0
 245 31 267 23 307 17 c 1
 307 -1 l 1
 263 1 243 2 173 2 c 0
 129 2 85 1 40 -1 c 1
 40 17 l 1
 71 23 91 29 103 43 c 0
 124 68 122 116 122 187 c 2
 122 363 l 2
 122 413 124 448 104 471 c 0
 92 485 74 492 42 498 c 1
 42 516 l 1xdc
 73 513 93 513 136 513 c 0
 217 513 196 515 268 515 c 0
 279 515 326 515 364 506 c 0
 422 492 474 456 474 371 c 0xec
EndSplineSet
EndChar
StartChar: r
Encoding: 21 114 20
Width: 550
Flags: MW
HStem: -5 21<467 509.5> 495 20G<242 287> 496 20G<42 42>
VStem: 122 89<186 247 281 363 363 388> 364 97<372 432.5 340.5 439>
LayerCount: 2
Fore
SplineSet
555 -2 m 1xd8
 521 -4 517 -5 502 -5 c 0
 432 -5 417 -4 381 45 c 0
 343 97 306 156 269 215 c 0
 254 238 248 247 230 247 c 2
 211 247 l 1
 211 153 l 2
 211 103 209 68 228 45 c 0
 239 31 258 22 291 17 c 1
 291 -1 l 1
 260 1 216 2 173 2 c 0
 129 2 85 1 40 -1 c 1
 40 17 l 1
 71 23 91 29 103 43 c 0
 124 68 122 115 122 186 c 2
 122 363 l 2
 122 413 123 448 104 471 c 0
 93 485 74 492 42 498 c 1
 42 516 l 1xb8
 73 513 99 513 142 513 c 0
 223 513 206 515 278 515 c 0
 296 515 333 515 365 507 c 0
 414 495 461 469 461 396 c 0
 461 285 347 267 335 265 c 1
 354 238 402 173 446 116 c 0
 512 30 523 23 555 15 c 1
 555 -2 l 1xd8
364 385 m 0
 364 493 280 487 252 487 c 0
 241 487 221 487 211 486 c 1
 211 281 l 1
 219 281 238 280 249 280 c 0
 266 280 286 279 301 283 c 0
 354 297 364 359 364 385 c 0
EndSplineSet
EndChar
StartChar: s
Encoding: 22 115 21
Width: 444
Flags: MW
HStem: -7 37<176.5 240.5 150.5 248> 499 20G<236 258>
VStem: 67 79<384 414> 303 85<99 145.5>
LayerCount: 2
Fore
SplineSet
388 148 m 0
 388 33 295 -7 201 -7 c 0
 152 -7 104 -1 58 15 c 1
 58 23 58 19 58 31 c 0
 58 60 60 93 54 151 c 1
 72 151 l 1
 96 103 108 30 193 30 c 0
 288 30 303 82 303 116 c 0
 303 175 259 194 229 210 c 2
 169 242 l 2
 128 264 67 299 67 381 c 0
 67 447 101 483 137 501 c 0
 178 522 232 519 240 519 c 0
 276 519 296 513 333 513 c 0
 342 513 349 516 357 521 c 1
 366 515 l 1
 365 507 362 460 362 445 c 0
 362 400 364 381 365 369 c 1
 347 369 l 1
 320 428 311 484 241 484 c 0
 217 484 146 485 146 406 c 0
 146 362 183 340 206 329 c 2
 280 293 l 2
 326 271 388 238 388 148 c 0
EndSplineSet
EndChar
StartChar: t
Encoding: 23 116 22
Width: 457
Flags: MW
HStem: -1 21<91 91 366 366> 479 34<182 184 273 275 275 295 182 314 273 273> 501 20G<24 24 433 433>
VStem: 184 89<187 479>
LayerCount: 2
Fore
SplineSet
441 515 m 1xb0
 440 507 438 457 438 444 c 0
 438 405 440 375 440 365 c 1
 422 365 l 1
 415 382 400 427 387 446 c 0
 374 463 371 479 314 479 c 2
 273 479 l 1
 273 153 l 2
 273 102 272 69 292 47 c 0
 306 32 328 23 366 17 c 1
 366 -1 l 1
 322 1 304 2 234 2 c 0
 190 2 136 1 91 -1 c 1
 91 17 l 1
 100 19 144 23 163 44 c 0
 185 68 184 116 184 187 c 2
 184 479 l 1
 143 479 l 2xd0
 87 479 83 463 70 446 c 0
 57 427 42 382 35 365 c 1
 17 365 l 1
 17 375 19 405 19 444 c 0
 19 457 17 507 16 515 c 1
 24 521 l 1xb0
 50 513 142 513 182 513 c 2
 275 513 l 2xd0
 315 513 408 513 433 521 c 1
 441 515 l 1xb0
EndSplineSet
EndChar
StartChar: u
Encoding: 24 117 23
Width: 618
Flags: MW
HStem: -7 37<256.5 378.5 253.5 383> 496 20G<22 22 273 273 362 362 596 596>
VStem: 102 89<222 328> 442 70 442 72<230 240 240 328>
LayerCount: 2
Fore
SplineSet
596 498 m 1xf0
 565 492 545 486 533 472 c 0
 511 448 514 399 514 328 c 2
 514 240 l 2xe8
 514 220 513 183 512 164 c 0
 509 67 460 -7 306 -7 c 0
 207 -7 120 21 105 123 c 0
 102 145 102 178 102 222 c 2
 102 363 l 2
 102 413 104 448 84 471 c 0
 72 485 54 492 22 498 c 1
 22 516 l 1
 53 514 98 513 141 513 c 0
 185 513 228 514 273 516 c 1
 273 498 l 1
 242 492 222 485 210 472 c 0
 188 448 191 399 191 328 c 2
 191 202 l 2
 191 127 191 30 316 30 c 0
 441 30 442 122 442 203 c 2
 442 363 l 2
 442 413 443 448 424 471 c 0
 413 485 394 492 362 498 c 1
 362 516 l 1
 393 514 435 513 478 513 c 0
 522 513 551 514 596 516 c 1
 596 498 l 1xf0
EndSplineSet
EndChar
StartChar: w
Encoding: 25 119 24
Width: 804
Flags: MW
HStem: -3 21<211 277 211 211 526 583 526 526> 496 20G<-3 -3 228 228 623 623 817 817>
LayerCount: 2
Fore
SplineSet
817 498 m 1
 807 497 786 489 780 485 c 0
 759 470 751 454 736 413 c 2
 583 -3 l 1
 526 -3 l 1
 421 362 l 2
 418 372 410 407 408 419 c 1
 405 399 398 380 392 362 c 2
 277 -3 l 1
 211 -3 l 1
 75 426 l 2
 61 470 41 488 -3 498 c 1
 -3 516 l 1
 25 514 80 513 111 513 c 0
 152 513 197 514 228 516 c 1
 228 498 l 1
 218 497 190 490 179 480 c 0
 173 474 168 466 168 456 c 0
 168 440 173 421 176 412 c 2
 232 224 l 2
 248 170 261 122 264 103 c 1
 267 123 273 142 279 160 c 2
 394 514 l 1
 399 512 416 510 430 510 c 0
 446 510 463 512 466 514 c 2
 567 172 l 2
 578 135 579 125 582 111 c 1
 672 413 l 2
 678 434 681 445 681 455 c 0
 681 463 679 472 674 478 c 0
 663 491 632 497 623 498 c 1
 623 516 l 1
 640 514 702 513 722 513 c 0
 751 513 797 514 817 516 c 1
 817 498 l 1
EndSplineSet
EndChar
StartChar: y
Encoding: 26 121 25
Width: 466
Flags: MW
HStem: -1 21<101 101 376 376> 496 20G<-10 -10 206 206 299 299 483 483>
VStem: 194 89<187 207 207 207>
LayerCount: 2
Fore
SplineSet
483 498 m 1
 448 490 435 481 410 441 c 2
 283 237 l 1
 283 153 l 2
 283 102 282 69 302 47 c 0
 316 32 338 23 376 17 c 1
 376 -1 l 1
 332 1 314 2 244 2 c 0
 200 2 146 1 101 -1 c 1
 101 17 l 1
 110 19 154 23 173 44 c 0
 195 68 194 116 194 187 c 2
 194 207 l 1
 74 420 l 2
 36 487 19 492 -10 498 c 1
 -10 516 l 1
 10 515 59 513 82 513 c 0
 114 513 185 515 206 516 c 1
 206 498 l 1
 174 493 154 484 154 468 c 0
 154 455 159 447 167 432 c 2
 257 270 l 1
 338 430 l 2
 348 450 351 458 351 468 c 0
 351 491 310 496 299 498 c 1
 299 516 l 1
 335 514 366 513 390 513 c 0
 418 513 456 514 483 516 c 1
 483 498 l 1
EndSplineSet
EndChar
StartChar: copyright
Encoding: 27 169 26
Width: 873
Flags: MW
HStem: -158 50<339.5 536.5 339.5 553> 7 33<423.5 475> 455 184<434.5 512> 588 51<342 541.5>
VStem: 45 65<141.5 339.5 141.5 356.5> 216 90<204.5 297.5> 764 64<145 342.5>
LayerCount: 2
Fore
SplineSet
828 245 m 0xde
 828 13 668 -158 438 -158 c 0
 207 -158 45 9 45 240 c 0
 45 473 209 639 442 639 c 0
 676 639 828 475 828 245 c 0xde
764 245 m 0
 764 440 641 588 442 588 c 0
 242 588 110 439 110 240 c 0
 110 43 241 -108 438 -108 c 0
 635 -108 764 45 764 245 c 0
593 116 m 1
 590 95 588 56 588 20 c 1
 543 7 481 7 469 7 c 0
 378 7 306 35 263 90 c 0
 234 126 216 173 216 236 c 0
 216 359 286 438 377 471 c 0
 419 486 467 486 474 486 c 0
 485 486 496 486 511 485 c 0
 542 484 545 481 563 481 c 0
 570 481 576 482 583 487 c 1
 589 484 l 1
 588 476 588 450 588 438 c 0
 588 401 589 395 589 385 c 1
 575 385 l 1
 546 443 539 455 485 455 c 0xee
 384 455 306 394 306 244 c 0
 306 155 334 40 483 40 c 0
 549 40 552 65 578 116 c 1
 593 116 l 1
EndSplineSet
EndChar
